<svg xmlns="http://www.w3.org/2000/svg" xmlns:xlink="http://www.w3.org/1999/xlink" 
width="500" zoomAndPan="magnify" viewBox="0 0 375 374.999991" 
height="500" preserveAspectRatio="xMidYMid meet" version="1.0">
<defs><g/></defs>
<g fill="#1a6294" fill-opacity="1">
    <g transform="translate(-11.561201, 285.749981)">
        <g>
            <path d="M 44.6875 -251.390625 C 57.644531 -251.390625 68.898438 -248.09375 78.453125 -241.5 C 88.003906 -234.90625 92.78125 -225.46875 92.78125 -213.1875 L 92.78125 -131.671875 C 92.78125 -125.296875 95.789062 -120.457031 101.8125 -117.15625 C 107.84375 -113.863281 114.722656 -112.21875 122.453125 -112.21875 L 122.453125 -85.28125 C 114.046875 -85.28125 107 -83.742188 101.3125 -80.671875 C 95.625 -77.597656 92.78125 -72.878906 92.78125 -66.515625 L 92.78125 16.375 C 92.78125 28.65625 88.003906 38.09375 78.453125 44.6875 C 68.898438 51.28125 57.644531 54.578125 44.6875 54.578125 L 13.640625 54.578125 L 13.640625 21.15625 C 30.472656 21.15625 39.113281 16.378906 39.5625 6.828125 L 42.984375 -62.078125 C 44.117188 -85.503906 55.601562 -97.21875 77.4375 -97.21875 L 77.4375 -100.28125 C 55.601562 -100.28125 44.117188 -111.992188 42.984375 -135.421875 L 39.5625 -203.984375 C 39.113281 -213.304688 30.472656 -217.96875 13.640625 -217.96875 L 13.640625 -251.390625 Z M 44.6875 -251.390625 "/>
        </g>
    </g>
</g>
<g fill="#1b78a3" fill-opacity="1">
    <g transform="translate(121.141915, 285.749981)">
        <g>
            <path d="M 119.046875 -217.96875 C 102.222656 -217.96875 93.582031 -213.304688 93.125 -203.984375 L 89.71875 -135.421875 C 88.570312 -111.992188 77.085938 -100.28125 55.265625 -100.28125 L 55.265625 -97.21875 C 77.085938 -97.21875 88.570312 -85.503906 89.71875 -62.078125 L 93.125 6.828125 C 93.582031 16.378906 102.222656 21.15625 119.046875 21.15625 L 119.046875 54.578125 L 88 54.578125 C 75.039062 54.578125 63.785156 51.28125 54.234375 44.6875 C 44.679688 38.09375 39.90625 28.65625 39.90625 16.375 L 39.90625 -66.515625 C 39.90625 -72.878906 37.0625 -77.597656 31.375 -80.671875 C 25.695312 -83.742188 18.648438 -85.28125 10.234375 -85.28125 L 10.234375 -112.21875 C 17.960938 -112.21875 24.835938 -113.863281 30.859375 -117.15625 C 36.890625 -120.457031 39.90625 -125.296875 39.90625 -131.671875 L 39.90625 -213.1875 C 39.90625 -225.46875 44.679688 -234.90625 54.234375 -241.5 C 63.785156 -248.09375 75.039062 -251.390625 88 -251.390625 L 119.046875 -251.390625 Z M 119.046875 -217.96875 "/>
        </g>
    </g>
</g>
<g fill="#1c8bb0" fill-opacity="1">
    <g transform="translate(253.845031, 285.749981)">
        <g>
            <path d="M 119.046875 -217.96875 C 102.222656 -217.96875 93.582031 -213.304688 93.125 -203.984375 L 89.71875 -135.421875 C 88.570312 -111.992188 77.085938 -100.28125 55.265625 -100.28125 L 55.265625 -97.21875 C 77.085938 -97.21875 88.570312 -85.503906 89.71875 -62.078125 L 93.125 6.828125 C 93.582031 16.378906 102.222656 21.15625 119.046875 21.15625 L 119.046875 54.578125 L 88 54.578125 C 75.039062 54.578125 63.785156 51.28125 54.234375 44.6875 C 44.679688 38.09375 39.90625 28.65625 39.90625 16.375 L 39.90625 -66.515625 C 39.90625 -72.878906 37.0625 -77.597656 31.375 -80.671875 C 25.695312 -83.742188 18.648438 -85.28125 10.234375 -85.28125 L 10.234375 -112.21875 C 17.960938 -112.21875 24.835938 -113.863281 30.859375 -117.15625 C 36.890625 -120.457031 39.90625 -125.296875 39.90625 -131.671875 L 39.90625 -213.1875 C 39.90625 -225.46875 44.679688 -234.90625 54.234375 -241.5 C 63.785156 -248.09375 75.039062 -251.390625 88 -251.390625 L 119.046875 -251.390625 Z M 119.046875 -217.96875 "/>
        </g>
    </g>
</g>
</svg>